#!OML:ASF H:\Dans Jumps\Project 1\Capture day 1\Session 1\subject.ASF
:FULLY-SPECIFIED
:DEGREES
224
root 0.496041 16.7903 -14.9935 12.6455 -0.00701146 -2.19183
lowerback 6.53551 -0.405258 0.223498
upperback 5.43625 -0.548562 2.0614
thorax 1.96274 -0.305725 2.02365
lowerneck -13.543 0.430609 -2.09484
upperneck 20.1178 1.08426 -0.0780768
head 8.48746 0.341141 0.444324
rclavicle -1.19271e-015 -1.98785e-016
rhumerus -23.4196 -21.1132 -75.442
rradius 22.3069
rwrist 35.7578
rhand -18.3508 -26.2245
rfingers 7.12502
rthumb 7.93176 -56.0557
lclavicle -1.19271e-015 -1.98785e-016
lhumerus -22.084 3.37972 84.2011
lradius 17.3098
lwrist 1.1709
lhand -23.3574 -1.78145
lfingers 7.12502
lthumb 3.09799 28.1758
rfemur -34.6444 -2.47484 19.7482
rtibia 42.871
rfoot -20.9792 -4.66479
rtoes 0.523454
lfemur -35.6627 10.3629 -19.0211
ltibia 42.558
lfoot -18.7757 7.40991
ltoes -19.1435
225
root 0.496859 16.762 -15.0023 12.8424 -0.0456747 -2.19227
lowerback 6.75812 -0.390899 0.215231
upperback 5.46872 -0.527334 2.07033
thorax 1.87272 -0.295396 2.03835
lowerneck -13.6369 0.429931 -2.08664
upperneck 19.814 1.08833 -0.112757
head 8.40223 0.343081 0.430933
rclavicle -8.34896e-015 -3.77691e-015
rhumerus -23.6427 -21.3816 -75.1919
rradius 22.1818
rwrist 36.0326
rhand -18.299 -26.2412
rfingers 7.12502
rthumb 7.98178 -56.0705
lclavicle -8.34896e-015 -3.77691e-015
lhumerus -22.2294 3.65051 84.0597
lradius 17.1298
lwrist 0.85086
lhand -23.2428 -1.69107
lfingers 7.12502
lthumb 3.20859 28.2645
rfemur -35.2358 -2.47002 19.7582
rtibia 43.4925
rfoot -21.2447 -4.71591
rtoes 0.458877
lfemur -36.2389 10.4323 -19.0846
ltibia 43.1749
lfoot -19.0334 7.62359
ltoes -19.4406
226
root 0.497361 16.7336 -15.0099 13.0298 -0.0915237 -2.1885
lowerback 6.98602 -0.376389 0.195498
upperback 5.50022 -0.506406 2.07729
thorax 1.77895 -0.285495 2.05741
lowerneck -13.7399 0.429399 -2.09803
upperneck 19.5376 1.09279 -0.12592
head 8.32782 0.345667 0.42823
rclavicle 2.38542e-015 -1.80894e-014
rhumerus -23.8593 -21.6532 -74.9498
rradius 22.0521
rwrist 36.3141
rhand -18.2505 -26.2733
rfingers 7.12502
rthumb 8.02853 -56.1008
lclavicle 2.38542e-015 -1.80894e-014
lhumerus -22.3671 3.94261 83.9095
lradius 16.9404
lwrist 0.501108
lhand -23.0384 -1.45398
lfingers 7.12502
lthumb 3.40597 28.4986
rfemur -35.8091 -2.44554 19.7605
rtibia 44.1107
rfoot -21.525 -4.78996
rtoes 0.36413
lfemur -36.7957 10.5011 -19.1482
ltibia 43.7903
lfoot -19.296 7.86173
ltoes -19.7288
227
root 0.497439 16.7047 -15.0161 13.208 -0.142328 -2.18461
lowerback 7.2185 -0.361402 0.169112
upperback 5.53068 -0.485201 2.08247
thorax 1.68174 -0.275586 2.07832
lowerneck -13.8353 0.433617 -2.08077
upperneck 19.2648 1.10227 -0.163649
head 8.2537 0.350228 0.413119
rclavicle 4.96962e-016 -7.35503e-015
rhumerus -24.0697 -21.9431 -74.7111
rradius 21.9158
rwrist 36.6104
rhand -18.2038 -26.2971
rfingers 7.12502
rthumb 8.0736 -56.1229
lclavicle 4.96962e-016 -7.35503e-015
lhumerus -22.4981 4.25038 83.7502
lradius 16.7413
lwrist 0.127927
lhand -22.8761 -1.27537
lfingers 7.12502
lthumb 3.56272 28.6746
rfemur -36.365 -2.40166 19.7604
rtibia 44.7269
rfoot -21.8266 -4.89432
rtoes 0.225912
lfemur -37.3345 10.5684 -19.2066
ltibia 44.4056
lfoot -19.5647 8.13525
ltoes -19.9962
228
root 0.497156 16.6756 -15.0211 13.3828 -0.200607 -2.17972
lowerback 7.45496 -0.345263 0.135611
upperback 5.55621 -0.462838 2.08443
thorax 1.57731 -0.265175 2.09979
lowerneck -13.9169 0.440054 -2.05277
upperneck 18.9925 1.11293 -0.206629
head 8.17749 0.35562 0.394598
rclavicle 2.18663e-015 1.19271e-015
rhumerus -24.2693 -22.2524 -74.479
rradius 21.7683
rwrist 36.9183
rhand -18.1531 -26.3296
rfingers 7.12502
rthumb 8.12259 -56.1535
lclavicle 2.18663e-015 1.19271e-015
lhumerus -22.6187 4.55877 83.5824
lradius 16.5304
lwrist -0.256659
lhand -22.6753 -1.05288
lfingers 7.12502
lthumb 3.75669 28.8938
rfemur -36.9099 -2.33726 19.7562
rtibia 45.3414
rfoot -22.1524 -5.0261
rtoes 0.065413
lfemur -37.8599 10.6267 -19.2599
ltibia 45.0222
lfoot -19.8344 8.46045
ltoes -20.171
229
root 0.496494 16.6463 -15.0248 13.5556 -0.266456 -2.17413
lowerback 7.69637 -0.328587 0.0922147
upperback 5.57839 -0.440392 2.08477
thorax 1.46685 -0.254904 2.12508
lowerneck -14.0102 0.447077 -2.0306
upperneck 18.7356 1.12401 -0.240098
head 8.10857 0.361564 0.38041
rclavicle -1.08338e-014 1.43125e-014
rhumerus -24.4515 -22.5682 -74.2578
rradius 21.6157
rwrist 37.2331
rhand -18.0991 -26.3639
rfingers 7.12502
rthumb 8.17472 -56.1858
lclavicle -1.08338e-014 1.43125e-014
lhumerus -22.72 4.87635 83.406
lradius 16.3066
lwrist -0.648447
lhand -22.4563 -0.83359
lfingers 7.12502
lthumb 3.96818 29.1092
rfemur -37.4461 -2.25281 19.7481
rtibia 45.955
rfoot -22.5017 -5.18721
rtoes -0.115504
lfemur -38.3742 10.6738 -19.3068
ltibia 45.6437
lfoot -20.095 8.86446
ltoes -20.189
230
root 0.495587 16.6167 -15.0275 13.7276 -0.336461 -2.17361
lowerback 7.94856 -0.311763 0.0477015
upperback 5.59198 -0.417778 2.08563
thorax 1.34166 -0.244441 2.15152
lowerneck -14.1067 0.454361 -2.02215
upperneck 18.4903 1.13533 -0.257473
head 8.04408 0.368124 0.373951
rclavicle -7.45443e-015 -7.55382e-015
rhumerus -24.6266 -22.8873 -74.0418
rradius 21.463
rwrist 37.5501
rhand -18.0373 -26.3937
rfingers 7.12502
rthumb 8.23433 -56.2132
lclavicle -7.45443e-015 -7.55382e-015
lhumerus -22.8168 5.20043 83.2252
lradius 16.0857
lwrist -1.0427
lhand -22.26 -0.67557
lfingers 7.12502
lthumb 4.15769 29.2636
rfemur -37.9746 -2.1532 19.7431
rtibia 46.5666
rfoot -22.8687 -5.37291
rtoes -0.300233
lfemur -38.881 10.7119 -19.3418
ltibia 46.2719
lfoot -20.3477 9.35191
ltoes -19.9625
231
root 0.494592 16.5868 -15.0291 13.8989 -0.409037 -2.18039
lowerback 8.20382 -0.294115 0.00878122
upperback 5.59827 -0.393829 2.08655
thorax 1.20723 -0.233031 2.17471
lowerneck -14.2069 0.465097 -2.00671
upperneck 18.2537 1.15046 -0.277588
head 7.98327 0.376612 0.365906
rclavicle -7.95139e-016 7.95139e-016
rhumerus -24.8006 -23.1969 -73.8329
rradius 21.3247
rwrist 37.8529
rhand -17.954 -26.4113
rfingers 7.12502
rthumb 8.31472 -56.2277
lclavicle -7.95139e-016 7.95139e-016
lhumerus -22.9142 5.5322 83.0404
lradius 15.876
lwrist -1.43425
lhand -22.1515 -0.660064
lfingers 7.12502
lthumb 4.26249 29.277
rfemur -38.4934 -2.04124 19.7433
rtibia 47.1746
rfoot -23.251 -5.58897
rtoes -0.504285
lfemur -39.38 10.7485 -19.3639
ltibia 46.908
lfoot -20.605 9.92042
ltoes -19.4107
232
root 0.493547 16.5569 -15.0297 14.077 -0.479159 -2.19442
lowerback 8.46033 -0.277888 -0.0237516
upperback 5.5962 -0.371416 2.08766
thorax 1.06359 -0.222082 2.19453
lowerneck -14.3056 0.475157 -2.00083
upperneck 18.0159 1.16351 -0.28199
head 7.92173 0.38503 0.364419
rclavicle 9.93923e-016 -1.33186e-014
rhumerus -24.958 -23.4999 -73.6393
rradius 21.1935
rwrist 38.1407
rhand -17.8468 -26.4427
rfingers 7.12502
rthumb 8.41814 -56.255
lclavicle 9.93923e-016 -1.33186e-014
lhumerus -23.0004 5.87641 82.8501
lradius 15.6715
lwrist -1.823
lhand -22.0376 -0.65574
lfingers 7.12502
lthumb 4.37241 29.2791
rfemur -39.0103 -1.92228 19.7501
rtibia 47.7767
rfoot -23.6336 -5.84004
rtoes -0.729193
lfemur -39.8809 10.7791 -19.3748
ltibia 47.5489
lfoot -20.8715 10.5597
ltoes -18.5879
233
root 0.492456 16.5272 -15.0292 14.2618 -0.542908 -2.21538
lowerback 8.71611 -0.263759 -0.0480862
upperback 5.58491 -0.351256 2.08966
thorax 0.910923 -0.211914 2.21074
lowerneck -14.3906 0.486626 -1.99339
upperneck 17.7681 1.1768 -0.282309
head 7.8545 0.394213 0.363953
rclavicle 4.57205e-015 4.37326e-015
rhumerus -25.1081 -23.7769 -73.4626
rradius 21.0817
rwrist 38.3894
rhand -17.7291 -26.481
rfingers 7.12502
rthumb 8.5318 -56.2886
lclavicle 4.57205e-015 4.37326e-015
lhumerus -23.0848 6.23239 82.6574
lradius 15.4869
lwrist -2.19509
lhand -21.9698 -0.695571
lfingers 7.12502
lthumb 4.43795 29.2379
rfemur -39.5246 -1.80132 19.7647
rtibia 48.3731
rfoot -24.0097 -6.13926
rtoes -0.927611
lfemur -40.3849 10.8057 -19.3765
ltibia 48.192
lfoot -21.1628 11.2359
ltoes -17.6371
234
root 0.491322 16.4979 -15.0278 14.4538 -0.597183 -2.23812
lowerback 8.97057 -0.253199 -0.0677813
upperback 5.56536 -0.335485 2.091
thorax 0.75068 -0.203677 2.22392
lowerneck -14.4717 0.500433 -1.96964
upperneck 17.5154 1.19139 -0.292681
head 7.78522 0.404175 0.357579
rclavicle 1.09332e-015 -1.96797e-014
rhumerus -25.2433 -24.0434 -73.3022
rradius 20.98
rwrist 38.6132
rhand -17.6024 -26.5166
rfingers 7.12502
rthumb 8.65409 -56.3192
lclavicle 1.09332e-015 -1.96797e-014
lhumerus -23.1646 6.59909 82.4609
lradius 15.3153
lwrist -2.54903
lhand -21.8654 -0.683455
lfingers 7.12502
lthumb 4.53872 29.2479
rfemur -40.0362 -1.68316 19.7819
rtibia 48.9636
rfoot -24.3805 -6.48913
rtoes -0.985934
lfemur -40.8919 10.831 -19.3786
ltibia 48.8291
lfoot -21.4977 11.8935
ltoes -16.7762
235
root 0.490034 16.4685 -15.0255 14.6535 -0.64314 -2.26365
lowerback 9.22229 -0.245021 -0.081995
upperback 5.53786 -0.322453 2.09133
thorax 0.583887 -0.196537 2.23315
lowerneck -14.5411 0.516665 -1.9125
upperneck 17.252 1.20647 -0.329881
head 7.71083 0.414086 0.33684
rclavicle 1.78906e-015 -7.95139e-016
rhumerus -25.3695 -24.2925 -73.1583
rradius 20.8921
rwrist 38.8059
rhand -17.4787 -26.5348
rfingers 7.12502
rthumb 8.77346 -56.3325
lclavicle 1.78906e-015 -7.95139e-016
lhumerus -23.241 6.96496 82.264
lradius 15.1596
lwrist -2.86232
lhand -21.8377 -0.745605
lfingers 7.12502
lthumb 4.56551 29.1852
rfemur -40.5484 -1.56457 19.8024
rtibia 49.5513
rfoot -24.7486 -6.9121
rtoes -0.909333
lfemur -41.4054 10.8573 -19.3824
ltibia 49.4563
lfoot -21.8776 12.4858
ltoes -16.1633
236
root 0.488601 16.4395 -15.0222 14.8614 -0.676185 -2.28331
lowerback 9.47117 -0.241426 -0.0980669
upperback 5.50261 -0.315585 2.08987
thorax 0.410973 -0.192366 2.24207
lowerneck -14.6029 0.538063 -1.81535
upperneck 16.9798 1.22621 -0.403912
head 7.63285 0.425308 0.297889
rclavicle 1.22253e-014 2.0276e-014
rhumerus -25.4841 -24.5207 -73.0326
rradius 20.8164
rwrist 38.9595
rhand -17.3717 -26.5269
rfingers 7.12502
rthumb 8.87665 -56.3202
lclavicle 1.22253e-014 2.0276e-014
lhumerus -23.313 7.32913 82.0691
lradius 15.0144
lwrist -3.13398
lhand -21.9076 -0.949675
lfingers 7.12502
lthumb 4.49804 28.9826
rfemur -41.0603 -1.45517 19.8183
rtibia 50.1368
rfoot -25.1326 -7.39815
rtoes -0.696163
lfemur -41.9223 10.871 -19.3955
ltibia 50.0659
lfoot -22.2945 12.9817
ltoes -15.8556
237
root 0.486918 16.4107 -15.018 15.0737 -0.695406 -2.29559
lowerback 9.7217 -0.242808 -0.119544
upperback 5.46187 -0.315684 2.08774
thorax 0.231913 -0.19166 2.25405
lowerneck -14.683 0.559292 -1.71895
upperneck 16.7282 1.24632 -0.478275
head 7.565 0.436296 0.259234
rclavicle 2.48481e-015 -1.98785e-016
rhumerus -25.5869 -24.7275 -72.9229
rradius 20.7518
rwrist 39.0854
rhand -17.2831 -26.4945
rfingers 7.12502
rthumb 8.96221 -56.2841
lclavicle 2.48481e-015 -1.98785e-016
lhumerus -23.3766 7.70688 81.8719
lradius 14.8648
lwrist -3.38926
lhand -22.0947 -1.35938
lfingers 7.12502
lthumb 4.31731 28.5766
rfemur -41.5683 -1.35517 19.8284
rtibia 50.7202
rfoot -25.549 -7.92709
rtoes -0.402975
lfemur -42.4377 10.8603 -19.4148
ltibia 50.6555
lfoot -22.7196 13.3933
ltoes -15.8132
